<svg fill="none" height="12" viewBox="0 0 12 12" width="12" xmlns="http://www.w3.org/2000/svg"><path clip-rule="evenodd" d="m11.86 5.56001-2.22665-4.45334c-.33919-.679434-1.03393-1.10815467-1.79333-1.10666225h-3.68c-.7594-.00149242-1.45413.42722825-1.79333 1.10666225l-2.22667 4.45334c-.0928689.18633-.14081556.39181-.13999978.6v3.83999c0 1.1046.89543078 2 1.99999978 2h7.99998c1.1046 0 2-.8954 2-2v-3.83999c.0008-.20819-.0471-.41367-.14-.6zm-8.29998-3.86c.11404-.22634.34656-.36843.6-.36667h3.68c.25344-.00176.48596.14033.6.36667l1.81338 3.63333h-8.50671zm-1.56 8.96669h7.99998c.3682 0 .6667-.2985.6667-.6667v-3.33333h-9.33335v3.33333c0 .3682.29848.6667.66667.6667z" fill="#000" fill-rule="evenodd"/></svg>