<svg fill="none" height="12" viewBox="0 0 14 12" width="14" xmlns="http://www.w3.org/2000/svg"><path clip-rule="evenodd" d="m6.19422 11.1397c.12582.1248.29614.1943.47334.1933.1772.001.34752-.0685.47333-.1933l5.18001-5.18668c1.3523-1.36643 1.3523-3.5669 0-4.93333-1.3634-1.359585-3.56991-1.359585-4.93334 0l-.72.72-.72-.72c-1.36343-1.359585-3.56991-1.359585-4.93334 0-1.352295 1.36643-1.352295 3.5669 0 4.93333zm-4.23333-9.18001c.40259-.40358.94996-.62925 1.52-.62667.57004-.00258 1.11741.22309 1.52.62667l1.19333 1.2c.12518.1262.29558.19719.47334.19719s.34815-.07099.47333-.19719l1.19333-1.2c.85308-.80596 2.18688-.80596 3.03998 0 .8382.8426.8382 2.20406 0 3.04666l-4.70664 4.71334-4.70667-4.71334c-.83819-.8426-.83819-2.20406 0-3.04666z" fill="#000" fill-rule="evenodd"/></svg>