<svg fill="none" height="14" viewBox="0 0 14 14" width="14" xmlns="http://www.w3.org/2000/svg"><path clip-rule="evenodd" d="m0 6.66667c0-3.6819 2.98477-6.66667 6.66667-6.66667 1.76811 0 3.46383.702379 4.71403 1.95262 1.2503 1.25024 1.9526 2.94594 1.9526 4.71405 0 3.68193-2.9847 6.66663-6.66663 6.66663-3.6819 0-6.66667-2.9847-6.66667-6.66663zm7.86-5.19334c-.39142-.09042-.79162-.13737-1.19333-.14-2.94552 0-5.33334 2.38782-5.33334 5.33334.00101.3219.03001.64311.08667.96.86667.36 2.26.76 3.17333.04666.63334-.47333.63334-1.00666.63334-1.91333-.0576-.75689.08495-1.51562.41333-2.2.29975-.47844.72682-.86395 1.23333-1.11333.03057-.01911.06114-.03797.09162-.05678.12903-.07962.2564-.15821.37505-.24989.22551-.17609.40411-.40507.52-.66667zm-5.86 7.72667c.43562.11324.88328.17367 1.33333.18.75307.02071 1.49094-.21428 2.09334-.66667 1.14-.89333 1.14-2.04 1.14-2.96-.05057-.53248.03428-1.06909.24666-1.56.19294-.26272.45002-.47159.74667-.60666.21196-.12387.41673-.25964.61333-.40667.41431-.32725.73602-.75697.93334-1.24667.93793.47991 1.71273 1.22688 2.22663 2.14667-.9533.13333-2.30663.44667-2.5733 1.68667-.06019.29626-.09145.59768-.09333.9.02158.3379-.04505.67561-.19334.98l-.06666.11333c-.43334.72-.92 1.54-.26 2.6667.07999.14.16665.2733.25331.4066h.00002c.17743.205.29709.4535.34667.72-.65568.289-1.36348.441-2.08.4467-1.95054-.0097-3.74018-1.0835-4.66667-2.8zm7.53333.92c.16403.2393.30468.4938.42.76l-.02.0333c1.68487-1.2912 2.43547-3.46411 1.90667-5.51997-.64.04667-1.6733.18-1.78.66667-.0406.21989-.06067.44307-.06.66667.0255.56234-.09873 1.12138-.36 1.62l-.06667.11333c-.42.66667-.51333.88-.25333 1.33333.06666.11333.13999.21997.21331.32667z" fill="#000" fill-rule="evenodd"/></svg>