<svg fill="none" height="20" viewBox="0 0 20 20" width="20" xmlns="http://www.w3.org/2000/svg"><g fill="#000" opacity=".2"><path d="m0 0h20v20h-20z" opacity=".01"/><path d="m7.74165 17.5c-1.39073-.0067-2.72063-.5711-3.69167-1.5667-.9636-.9133-1.52441-2.1723-1.5588-3.4995-.03439-1.3271.46046-2.61352 1.37547-3.57548l6.13333-6.19166c.66182-.66066 1.56512-1.02195 2.50002-1 1.0011.0034 1.9589.40874 2.6583 1.125 1.4343 1.38091 1.49 3.65891.125 5.10833l-6.16665 6.19171c-.39897.4016-.94221.6267-1.50834.625-.61168.0008-1.19772-.2457-1.625-.6834-.8798-.8518-.90954-2.2533-.06666-3.1416l5.69165-5.71671c.3342-.22196.7791-.17428 1.0587.11347.2796.28774.3145.73385.083 1.06153l-5.69169 5.71671c-.19746.2378-.16779.5901.06667.7916.11726.1181.27534.1867.44167.1917.12444.0018.24444-.0462.33333-.1333l6.15832-6.19171c.7193-.79906.6636-2.02761-.125-2.75833-.7309-.75888-1.9276-.81378-2.725-.125l-6.15832 6.15833c-.60484.64961-.9256 1.51371-.89118 2.40061.03441.887.42115 1.7236 1.07451 2.3244.6553.6793 1.55617 1.0667 2.5 1.075.81364.0066 1.59637-.3113 2.175-.8833l6.15829-6.19171c.3245-.32677.8524-.32864 1.1792-.00417s.3286.8524.0042 1.17917l-6.1584 6.19171c-.8832.8988-2.08982 1.4061-3.34995 1.4083z"/></g></svg>