<svg fill="none" height="20" viewBox="0 0 20 20" width="20" xmlns="http://www.w3.org/2000/svg"><g fill="#000" opacity=".2"><path d="m0 0h20v20h-20z" opacity=".01"/><path clip-rule="evenodd" d="m9.40831 17.2583c.15726.156.37016.243.59167.2417.22152.0013.43442-.0857.59162-.2417l6.475-6.4833c1.6904-1.70802 1.6904-4.45861 0-6.16665-1.7042-1.69948-4.4623-1.69948-6.1666 0l-.90002.9-.9-.9c-1.70429-1.69948-4.46239-1.69948-6.16667 0-1.69038 1.70804-1.69038 4.45863 0 6.16665zm-5.29167-11.47495c.50324-.50448 1.18745-.78656 1.9-.78334.71256-.00322 1.39676.27886 1.9.78334l1.49167 1.5c.15647.15776.36947.2465.59167.2465.22222 0 .43522-.08874.59162-.2465l1.4917-1.5c1.0664-1.00745 2.7337-1.00745 3.8 0 1.0477 1.05325 1.0477 2.75507 0 3.80833l-5.88332 5.89162-5.88334-5.89162c-1.04774-1.05326-1.04774-2.75508 0-3.80833z" fill-rule="evenodd"/></g></svg>