<svg fill="none" height="20" viewBox="0 0 20 20" width="20" xmlns="http://www.w3.org/2000/svg"><g fill="#000" opacity=".2"><path d="m0 0h20v20h-20z" opacity=".01"/><path d="m9.99996 9.99998c.46024 0 .83334-.3731.83334-.83333 0-.46024-.3731-.83334-.83334-.83334s-.83333.3731-.83333.83334c0 .46023.37309.83333.83333.83333z"/><path d="m13.3333 9.99998c.4603 0 .8334-.3731.8334-.83333 0-.46024-.3731-.83334-.8334-.83334-.4602 0-.8333.3731-.8333.83334 0 .46023.3731.83333.8333.83333z"/><path d="m6.66671 9.99998c.46023 0 .83333-.3731.83333-.83333 0-.46024-.3731-.83334-.83333-.83334-.46024 0-.83334.3731-.83334.83334 0 .46023.3731.83333.83334.83333z"/><path clip-rule="evenodd" d="m4.16663 2.5h11.66667c1.3807 0 2.5 1.11929 2.5 2.5v8.3333c0 1.3807-1.1193 2.5-2.5 2.5h-8.70834c-.16084-.0062-.32003.0344-.45833.1167l-3.74167 2.2667c-.12863.0763-.27543.1166-.425.1166-.14316-.0004-.28379-.0377-.40833-.1083-.26208-.1473-.42449-.4244-.425-.725v-12.5c0-1.38071 1.11928-2.5 2.5-2.5zm11.66667 11.6667c.4602 0 .8333-.3731.8333-.8334v-8.3333c0-.46024-.3731-.83333-.8333-.83333h-11.66667c-.46024 0-.83334.37309-.83334.83333v11.025l2.5-1.5c.38991-.2348.83652-.3587 1.29167-.3583z" fill-rule="evenodd"/></g></svg>