<svg width="20" height="20" viewBox="0 0 20 20" fill="none" xmlns="http://www.w3.org/2000/svg">
<g opacity="0.2">
<rect opacity="0.01" width="20" height="20" fill="black"/>
<path fill-rule="evenodd" clip-rule="evenodd" d="M1.66675 10C1.66675 5.39763 5.39771 1.66667 10.0001 1.66667C12.2102 1.66667 14.3298 2.54465 15.8926 4.10745C17.4554 5.67025 18.3334 7.78987 18.3334 10C18.3334 14.6024 14.6025 18.3333 10.0001 18.3333C5.39771 18.3333 1.66675 14.6024 1.66675 10ZM3.33341 10C3.33341 13.6819 6.31818 16.6667 10.0001 16.6667C11.7682 16.6667 13.4639 15.9643 14.7141 14.7141C15.9644 13.4638 16.6667 11.7681 16.6667 10C16.6667 6.31811 13.682 3.33334 10.0001 3.33334C6.31818 3.33334 3.33341 6.31811 3.33341 10Z" fill="black"/>
<path d="M10.0001 14.1667C10.4603 14.1667 10.8334 13.7936 10.8334 13.3333C10.8334 12.8731 10.4603 12.5 10.0001 12.5C9.53984 12.5 9.16675 12.8731 9.16675 13.3333C9.16675 13.7936 9.53984 14.1667 10.0001 14.1667Z" fill="black"/>
<path d="M10.0001 5.83333C9.53984 5.83333 9.16675 6.20642 9.16675 6.66666V10.8333C9.16675 11.2936 9.53984 11.6667 10.0001 11.6667C10.4603 11.6667 10.8334 11.2936 10.8334 10.8333V6.66666C10.8334 6.20642 10.4603 5.83333 10.0001 5.83333Z" fill="black"/>
</g>
</svg>
