<svg width="20" height="20" viewBox="0 0 20 20" fill="none" xmlns="http://www.w3.org/2000/svg">
<g opacity="0.2">
<rect opacity="0.01" width="20" height="20" fill="black"/>
<path fill-rule="evenodd" clip-rule="evenodd" d="M17.0999 12.675L15.5999 11.1667V7.45C15.6412 4.59612 13.5712 2.14907 10.7499 1.71666C9.14807 1.50571 7.53294 1.99479 6.31721 3.05896C5.10147 4.12313 4.40288 5.6593 4.39993 7.275V11.1667L2.89993 12.675C2.51474 13.0666 2.40145 13.6508 2.61233 14.158C2.82322 14.6652 3.3173 14.9969 3.8666 15H6.6666V15.2833C6.74764 17.0447 8.23828 18.4087 9.99994 18.3333C11.7616 18.4087 13.2522 17.0447 13.3333 15.2833V15H16.1333C16.6826 14.9969 17.1767 14.6652 17.3875 14.158C17.5984 13.6508 17.4851 13.0666 17.0999 12.675ZM11.6666 15.2833C11.5706 16.1161 10.8361 16.7257 9.99993 16.6667C9.16376 16.7257 8.42928 16.1161 8.33327 15.2833V15H11.6666V15.2833ZM5.57493 12.35L4.5916 13.3333H15.4083L14.4166 12.35C14.1046 12.0355 13.9307 11.6097 13.9333 11.1667V7.41666C13.976 5.39841 12.5259 3.65687 10.5333 3.33333C9.40168 3.18564 8.26229 3.54208 7.4166 4.30833C6.55967 5.05614 6.06752 6.13765 6.0666 7.275V11.1667C6.06695 11.6109 5.88997 12.0368 5.57493 12.35Z" fill="black"/>
</g>
</svg>
